<mxfile host="www.draw.io" modified="2020-02-15T18:48:19.558Z" agent="Mozilla/5.0 (Windows NT 10.0; Win64; x64) AppleWebKit/537.36 (KHTML, like Gecko) Chrome/80.0.3987.106 Safari/537.36" etag="AxtkV5Ye2jsx7GMuQapH" version="12.7.0" type="github">
  <diagram id="fVxrl4bYb1zHiEsI9O7_" name="Page-1">
    <mxGraphModel dx="865" dy="483" grid="1" gridSize="10" guides="1" tooltips="1" connect="1" arrows="1" fold="1" page="1" pageScale="1" pageWidth="827" pageHeight="1169" math="0" shadow="0">
      <root>
        <mxCell id="0"/>
        <mxCell id="1" parent="0"/>
        <mxCell id="8OAtvHNOOGIwDqOYuKZF-1" value="Answer" style="swimlane;fontStyle=0;childLayout=stackLayout;horizontal=1;startSize=26;fillColor=none;horizontalStack=0;resizeParent=1;resizeParentMax=0;resizeLast=0;collapsible=1;marginBottom=0;" parent="1" vertex="1">
          <mxGeometry x="90" y="220" width="140" height="78" as="geometry"/>
        </mxCell>
        <mxCell id="8OAtvHNOOGIwDqOYuKZF-2" value="isRight: bool" style="text;strokeColor=none;fillColor=none;align=left;verticalAlign=top;spacingLeft=4;spacingRight=4;overflow=hidden;rotatable=0;points=[[0,0.5],[1,0.5]];portConstraint=eastwest;" parent="8OAtvHNOOGIwDqOYuKZF-1" vertex="1">
          <mxGeometry y="26" width="140" height="26" as="geometry"/>
        </mxCell>
        <mxCell id="8OAtvHNOOGIwDqOYuKZF-3" value="Text: string" style="text;strokeColor=none;fillColor=none;align=left;verticalAlign=top;spacingLeft=4;spacingRight=4;overflow=hidden;rotatable=0;points=[[0,0.5],[1,0.5]];portConstraint=eastwest;" parent="8OAtvHNOOGIwDqOYuKZF-1" vertex="1">
          <mxGeometry y="52" width="140" height="26" as="geometry"/>
        </mxCell>
        <mxCell id="8OAtvHNOOGIwDqOYuKZF-5" value="Question" style="swimlane;fontStyle=1;align=center;verticalAlign=top;childLayout=stackLayout;horizontal=1;startSize=26;horizontalStack=0;resizeParent=1;resizeParentMax=0;resizeLast=0;collapsible=1;marginBottom=0;" parent="1" vertex="1">
          <mxGeometry x="470" y="214" width="160" height="138" as="geometry"/>
        </mxCell>
        <mxCell id="8OAtvHNOOGIwDqOYuKZF-6" value="Category: QuestionCategory&#xa;" style="text;strokeColor=none;fillColor=none;align=left;verticalAlign=top;spacingLeft=4;spacingRight=4;overflow=hidden;rotatable=0;points=[[0,0.5],[1,0.5]];portConstraint=eastwest;" parent="8OAtvHNOOGIwDqOYuKZF-5" vertex="1">
          <mxGeometry y="26" width="160" height="26" as="geometry"/>
        </mxCell>
        <mxCell id="8OAtvHNOOGIwDqOYuKZF-9" value="Answers[] : Answer" style="text;strokeColor=none;fillColor=none;align=left;verticalAlign=top;spacingLeft=4;spacingRight=4;overflow=hidden;rotatable=0;points=[[0,0.5],[1,0.5]];portConstraint=eastwest;" parent="8OAtvHNOOGIwDqOYuKZF-5" vertex="1">
          <mxGeometry y="52" width="160" height="26" as="geometry"/>
        </mxCell>
        <mxCell id="8OAtvHNOOGIwDqOYuKZF-10" value="QustionText: string" style="text;strokeColor=none;fillColor=none;align=left;verticalAlign=top;spacingLeft=4;spacingRight=4;overflow=hidden;rotatable=0;points=[[0,0.5],[1,0.5]];portConstraint=eastwest;" parent="8OAtvHNOOGIwDqOYuKZF-5" vertex="1">
          <mxGeometry y="78" width="160" height="26" as="geometry"/>
        </mxCell>
        <mxCell id="8OAtvHNOOGIwDqOYuKZF-7" value="" style="line;strokeWidth=1;fillColor=none;align=left;verticalAlign=middle;spacingTop=-1;spacingLeft=3;spacingRight=3;rotatable=0;labelPosition=right;points=[];portConstraint=eastwest;" parent="8OAtvHNOOGIwDqOYuKZF-5" vertex="1">
          <mxGeometry y="104" width="160" height="8" as="geometry"/>
        </mxCell>
        <mxCell id="8OAtvHNOOGIwDqOYuKZF-8" value="ToString(): type" style="text;strokeColor=none;fillColor=none;align=left;verticalAlign=top;spacingLeft=4;spacingRight=4;overflow=hidden;rotatable=0;points=[[0,0.5],[1,0.5]];portConstraint=eastwest;" parent="8OAtvHNOOGIwDqOYuKZF-5" vertex="1">
          <mxGeometry y="112" width="160" height="26" as="geometry"/>
        </mxCell>
        <mxCell id="8OAtvHNOOGIwDqOYuKZF-11" value="QuestionCategory: ENUM" style="swimlane;fontStyle=0;childLayout=stackLayout;horizontal=1;startSize=26;fillColor=none;horizontalStack=0;resizeParent=1;resizeParentMax=0;resizeLast=0;collapsible=1;marginBottom=0;" parent="1" vertex="1">
          <mxGeometry x="90" y="352" width="160" height="104" as="geometry"/>
        </mxCell>
        <mxCell id="8OAtvHNOOGIwDqOYuKZF-12" value="Easy" style="text;strokeColor=none;fillColor=none;align=left;verticalAlign=top;spacingLeft=4;spacingRight=4;overflow=hidden;rotatable=0;points=[[0,0.5],[1,0.5]];portConstraint=eastwest;" parent="8OAtvHNOOGIwDqOYuKZF-11" vertex="1">
          <mxGeometry y="26" width="160" height="26" as="geometry"/>
        </mxCell>
        <mxCell id="8OAtvHNOOGIwDqOYuKZF-15" value="Basic" style="text;strokeColor=none;fillColor=none;align=left;verticalAlign=top;spacingLeft=4;spacingRight=4;overflow=hidden;rotatable=0;points=[[0,0.5],[1,0.5]];portConstraint=eastwest;" parent="8OAtvHNOOGIwDqOYuKZF-11" vertex="1">
          <mxGeometry y="52" width="160" height="26" as="geometry"/>
        </mxCell>
        <mxCell id="8OAtvHNOOGIwDqOYuKZF-13" value="Complicated" style="text;strokeColor=none;fillColor=none;align=left;verticalAlign=top;spacingLeft=4;spacingRight=4;overflow=hidden;rotatable=0;points=[[0,0.5],[1,0.5]];portConstraint=eastwest;" parent="8OAtvHNOOGIwDqOYuKZF-11" vertex="1">
          <mxGeometry y="78" width="160" height="26" as="geometry"/>
        </mxCell>
        <mxCell id="8OAtvHNOOGIwDqOYuKZF-16" value="" style="endArrow=open;html=1;endSize=12;startArrow=diamondThin;startSize=14;startFill=0;align=left;verticalAlign=bottom;" parent="1" source="8OAtvHNOOGIwDqOYuKZF-5" target="8OAtvHNOOGIwDqOYuKZF-1" edge="1">
          <mxGeometry x="-1" y="3" relative="1" as="geometry">
            <mxPoint x="300" y="280" as="sourcePoint"/>
            <mxPoint x="460" y="280" as="targetPoint"/>
          </mxGeometry>
        </mxCell>
        <mxCell id="8OAtvHNOOGIwDqOYuKZF-17" value="" style="endArrow=open;html=1;endSize=12;startArrow=diamondThin;startSize=14;startFill=1;align=left;verticalAlign=bottom;" parent="1" source="8OAtvHNOOGIwDqOYuKZF-5" target="8OAtvHNOOGIwDqOYuKZF-11" edge="1">
          <mxGeometry x="-1" y="3" relative="1" as="geometry">
            <mxPoint x="340" y="510" as="sourcePoint"/>
            <mxPoint x="500" y="510" as="targetPoint"/>
          </mxGeometry>
        </mxCell>
        <mxCell id="8OAtvHNOOGIwDqOYuKZF-18" value="Testing" style="swimlane;fontStyle=0;childLayout=stackLayout;horizontal=1;startSize=26;fillColor=none;horizontalStack=0;resizeParent=1;resizeParentMax=0;resizeLast=0;collapsible=1;marginBottom=0;" parent="1" vertex="1">
          <mxGeometry x="300" y="510" width="220" height="156" as="geometry"/>
        </mxCell>
        <mxCell id="8OAtvHNOOGIwDqOYuKZF-19" value="Questions: List&lt;Question&gt;" style="text;strokeColor=none;fillColor=none;align=left;verticalAlign=top;spacingLeft=4;spacingRight=4;overflow=hidden;rotatable=0;points=[[0,0.5],[1,0.5]];portConstraint=eastwest;" parent="8OAtvHNOOGIwDqOYuKZF-18" vertex="1">
          <mxGeometry y="26" width="220" height="26" as="geometry"/>
        </mxCell>
        <mxCell id="7fctGExkoWNZvQsCTFw_-1" value="Categories: List&lt;QuestionCategory&gt;" style="text;strokeColor=none;fillColor=none;align=left;verticalAlign=top;spacingLeft=4;spacingRight=4;overflow=hidden;rotatable=0;points=[[0,0.5],[1,0.5]];portConstraint=eastwest;" vertex="1" parent="8OAtvHNOOGIwDqOYuKZF-18">
          <mxGeometry y="52" width="220" height="26" as="geometry"/>
        </mxCell>
        <mxCell id="7fctGExkoWNZvQsCTFw_-8" value="GetQestions: List&lt;List&lt;string&gt;&gt;" style="text;strokeColor=none;fillColor=none;align=left;verticalAlign=top;spacingLeft=4;spacingRight=4;overflow=hidden;rotatable=0;points=[[0,0.5],[1,0.5]];portConstraint=eastwest;" vertex="1" parent="8OAtvHNOOGIwDqOYuKZF-18">
          <mxGeometry y="78" width="220" height="26" as="geometry"/>
        </mxCell>
        <mxCell id="7fctGExkoWNZvQsCTFw_-2" value="CheckAnswer: bool" style="text;strokeColor=none;fillColor=none;align=left;verticalAlign=top;spacingLeft=4;spacingRight=4;overflow=hidden;rotatable=0;points=[[0,0.5],[1,0.5]];portConstraint=eastwest;" vertex="1" parent="8OAtvHNOOGIwDqOYuKZF-18">
          <mxGeometry y="104" width="220" height="26" as="geometry"/>
        </mxCell>
        <mxCell id="7fctGExkoWNZvQsCTFw_-3" value="GetAnswers: List&lt;string&gt;" style="text;strokeColor=none;fillColor=none;align=left;verticalAlign=top;spacingLeft=4;spacingRight=4;overflow=hidden;rotatable=0;points=[[0,0.5],[1,0.5]];portConstraint=eastwest;" vertex="1" parent="8OAtvHNOOGIwDqOYuKZF-18">
          <mxGeometry y="130" width="220" height="26" as="geometry"/>
        </mxCell>
        <mxCell id="8OAtvHNOOGIwDqOYuKZF-22" value="" style="endArrow=open;html=1;endSize=12;startArrow=diamondThin;startSize=14;startFill=1;align=left;verticalAlign=bottom;" parent="1" source="8OAtvHNOOGIwDqOYuKZF-18" target="8OAtvHNOOGIwDqOYuKZF-5" edge="1">
          <mxGeometry x="-1" y="3" relative="1" as="geometry">
            <mxPoint x="470" y="430" as="sourcePoint"/>
            <mxPoint x="260" y="388.52631578947364" as="targetPoint"/>
          </mxGeometry>
        </mxCell>
        <mxCell id="8OAtvHNOOGIwDqOYuKZF-23" value="QuestionForm&#xa;" style="swimlane;fontStyle=1;align=center;verticalAlign=top;childLayout=stackLayout;horizontal=1;startSize=26;horizontalStack=0;resizeParent=1;resizeParentMax=0;resizeLast=0;collapsible=1;marginBottom=0;" parent="1" vertex="1">
          <mxGeometry x="600" y="467" width="170" height="164" as="geometry"/>
        </mxCell>
        <mxCell id="8OAtvHNOOGIwDqOYuKZF-24" value="question: Questions" style="text;strokeColor=none;fillColor=none;align=left;verticalAlign=top;spacingLeft=4;spacingRight=4;overflow=hidden;rotatable=0;points=[[0,0.5],[1,0.5]];portConstraint=eastwest;" parent="8OAtvHNOOGIwDqOYuKZF-23" vertex="1">
          <mxGeometry y="26" width="170" height="26" as="geometry"/>
        </mxCell>
        <mxCell id="8OAtvHNOOGIwDqOYuKZF-25" value="mainForm: MainForm" style="text;strokeColor=none;fillColor=none;align=left;verticalAlign=top;spacingLeft=4;spacingRight=4;overflow=hidden;rotatable=0;points=[[0,0.5],[1,0.5]];portConstraint=eastwest;" parent="8OAtvHNOOGIwDqOYuKZF-23" vertex="1">
          <mxGeometry y="52" width="170" height="26" as="geometry"/>
        </mxCell>
        <mxCell id="8OAtvHNOOGIwDqOYuKZF-26" value="questions: Queue&lt;Question&gt;" style="text;strokeColor=none;fillColor=none;align=left;verticalAlign=top;spacingLeft=4;spacingRight=4;overflow=hidden;rotatable=0;points=[[0,0.5],[1,0.5]];portConstraint=eastwest;" parent="8OAtvHNOOGIwDqOYuKZF-23" vertex="1">
          <mxGeometry y="78" width="170" height="26" as="geometry"/>
        </mxCell>
        <mxCell id="8OAtvHNOOGIwDqOYuKZF-27" value="" style="line;strokeWidth=1;fillColor=none;align=left;verticalAlign=middle;spacingTop=-1;spacingLeft=3;spacingRight=3;rotatable=0;labelPosition=right;points=[];portConstraint=eastwest;" parent="8OAtvHNOOGIwDqOYuKZF-23" vertex="1">
          <mxGeometry y="104" width="170" height="8" as="geometry"/>
        </mxCell>
        <mxCell id="8OAtvHNOOGIwDqOYuKZF-28" value="FormClosed: void" style="text;strokeColor=none;fillColor=none;align=left;verticalAlign=top;spacingLeft=4;spacingRight=4;overflow=hidden;rotatable=0;points=[[0,0.5],[1,0.5]];portConstraint=eastwest;" parent="8OAtvHNOOGIwDqOYuKZF-23" vertex="1">
          <mxGeometry y="112" width="170" height="26" as="geometry"/>
        </mxCell>
        <mxCell id="8OAtvHNOOGIwDqOYuKZF-36" value="Button_Click: void" style="text;strokeColor=none;fillColor=none;align=left;verticalAlign=top;spacingLeft=4;spacingRight=4;overflow=hidden;rotatable=0;points=[[0,0.5],[1,0.5]];portConstraint=eastwest;" parent="8OAtvHNOOGIwDqOYuKZF-23" vertex="1">
          <mxGeometry y="138" width="170" height="26" as="geometry"/>
        </mxCell>
        <mxCell id="8OAtvHNOOGIwDqOYuKZF-29" value="MainForm" style="swimlane;fontStyle=1;align=center;verticalAlign=top;childLayout=stackLayout;horizontal=1;startSize=26;horizontalStack=0;resizeParent=1;resizeParentMax=0;resizeLast=0;collapsible=1;marginBottom=0;" parent="1" vertex="1">
          <mxGeometry x="610" y="710" width="170" height="138" as="geometry"/>
        </mxCell>
        <mxCell id="8OAtvHNOOGIwDqOYuKZF-30" value="testing: Testing" style="text;strokeColor=none;fillColor=none;align=left;verticalAlign=top;spacingLeft=4;spacingRight=4;overflow=hidden;rotatable=0;points=[[0,0.5],[1,0.5]];portConstraint=eastwest;" parent="8OAtvHNOOGIwDqOYuKZF-29" vertex="1">
          <mxGeometry y="26" width="170" height="26" as="geometry"/>
        </mxCell>
        <mxCell id="8OAtvHNOOGIwDqOYuKZF-31" value="questions: Queue&lt;Question&gt;" style="text;strokeColor=none;fillColor=none;align=left;verticalAlign=top;spacingLeft=4;spacingRight=4;overflow=hidden;rotatable=0;points=[[0,0.5],[1,0.5]];portConstraint=eastwest;" parent="8OAtvHNOOGIwDqOYuKZF-29" vertex="1">
          <mxGeometry y="52" width="170" height="26" as="geometry"/>
        </mxCell>
        <mxCell id="8OAtvHNOOGIwDqOYuKZF-32" value="categories: Queue&lt;Category&gt;" style="text;strokeColor=none;fillColor=none;align=left;verticalAlign=top;spacingLeft=4;spacingRight=4;overflow=hidden;rotatable=0;points=[[0,0.5],[1,0.5]];portConstraint=eastwest;" parent="8OAtvHNOOGIwDqOYuKZF-29" vertex="1">
          <mxGeometry y="78" width="170" height="26" as="geometry"/>
        </mxCell>
        <mxCell id="8OAtvHNOOGIwDqOYuKZF-33" value="" style="line;strokeWidth=1;fillColor=none;align=left;verticalAlign=middle;spacingTop=-1;spacingLeft=3;spacingRight=3;rotatable=0;labelPosition=right;points=[];portConstraint=eastwest;" parent="8OAtvHNOOGIwDqOYuKZF-29" vertex="1">
          <mxGeometry y="104" width="170" height="8" as="geometry"/>
        </mxCell>
        <mxCell id="8OAtvHNOOGIwDqOYuKZF-34" value="ButtonClick: void" style="text;strokeColor=none;fillColor=none;align=left;verticalAlign=top;spacingLeft=4;spacingRight=4;overflow=hidden;rotatable=0;points=[[0,0.5],[1,0.5]];portConstraint=eastwest;" parent="8OAtvHNOOGIwDqOYuKZF-29" vertex="1">
          <mxGeometry y="112" width="170" height="26" as="geometry"/>
        </mxCell>
        <mxCell id="8OAtvHNOOGIwDqOYuKZF-35" value="" style="endArrow=open;html=1;endSize=12;startArrow=diamondThin;startSize=14;startFill=0;align=left;verticalAlign=bottom;" parent="1" source="8OAtvHNOOGIwDqOYuKZF-23" target="8OAtvHNOOGIwDqOYuKZF-5" edge="1">
          <mxGeometry x="-1" y="3" relative="1" as="geometry">
            <mxPoint x="940" y="366.7669230769231" as="sourcePoint"/>
            <mxPoint x="700" y="351.99769230769226" as="targetPoint"/>
          </mxGeometry>
        </mxCell>
        <mxCell id="8OAtvHNOOGIwDqOYuKZF-40" value="" style="endArrow=open;html=1;endSize=12;startArrow=diamondThin;startSize=14;startFill=1;align=left;verticalAlign=bottom;" parent="1" source="8OAtvHNOOGIwDqOYuKZF-29" target="8OAtvHNOOGIwDqOYuKZF-23" edge="1">
          <mxGeometry x="-1" y="3" relative="1" as="geometry">
            <mxPoint x="496.9565217391305" y="614" as="sourcePoint"/>
            <mxPoint x="600" y="456" as="targetPoint"/>
          </mxGeometry>
        </mxCell>
      </root>
    </mxGraphModel>
  </diagram>
</mxfile>
